<svg width="168" height="112" viewBox="0 0 168 112" fill="none" xmlns="http://www.w3.org/2000/svg">
<g clip-path="url(#clip0)">
<path d="M87.5321 10.1947C87.3464 10.0856 87.1219 10.0721 86.9165 10.1467L74.6349 14.9042C74.3225 15.0254 74.1359 15.3471 74.1861 15.6776L75.8848 26.8492C75.2385 26.5804 74.4763 26.4709 73.6783 26.5922C71.7321 26.8882 70.3401 28.396 70.577 29.9538C70.8138 31.5116 72.5911 32.5375 74.5373 32.2416C76.4835 31.9456 77.8755 30.4378 77.6387 28.88L76.3288 20.2662L87.2457 16.037L88.1664 22.0917C87.52 21.8229 86.7578 21.7134 85.9598 21.8347C84.0122 22.1309 82.6216 23.6385 82.8585 25.1963C83.0954 26.7541 84.8712 27.7802 86.8188 27.4841C88.7665 27.1879 90.157 25.6803 89.9202 24.1225L87.88 10.7053C87.8473 10.4906 87.7206 10.3033 87.5321 10.1947Z" fill="white"/>
</g>
<g clip-path="url(#clip1)">
<path d="M137.118 5.83056C135.122 3.62795 135.249 1.13694 135.251 1.11266C135.263 0.928983 135.123 0.770249 134.94 0.758286C134.756 0.74632 134.597 0.885673 134.585 1.06931L134.345 4.76116L133.681 14.9566C132.742 13.872 130.782 13.5425 128.887 14.2581C127.577 14.7534 126.521 15.67 126.062 16.7103C125.762 17.3895 125.733 18.0715 125.976 18.6828C126.382 19.7012 127.486 20.3151 128.816 20.4017C129.559 20.4501 130.372 20.3337 131.173 20.0313C132.483 19.536 133.539 18.6194 133.998 17.5791C134.187 17.1504 134.235 16.7074 134.265 16.2473C134.282 15.9978 134.298 15.7486 134.314 15.499C134.337 15.1427 134.36 14.7864 134.384 14.4304C134.411 14.0048 134.439 13.5796 134.467 13.1541C134.497 12.6972 134.526 12.2404 134.556 11.7833C134.585 11.3324 134.615 10.8819 134.644 10.4311C134.671 10.0242 134.697 9.61762 134.724 9.2107C134.745 8.88529 134.766 8.56023 134.787 8.23482C134.801 8.02889 134.814 7.82291 134.828 7.61663C134.831 7.56307 134.835 7.50916 134.838 7.4556C135.138 8.24502 135.615 9.1221 136.384 9.97003C137.966 11.7164 138.148 12.6862 138.152 13.0222C138.154 13.1968 138.291 13.339 138.464 13.3503C138.468 13.3505 138.472 13.3508 138.477 13.3508C138.656 13.3555 138.806 13.2179 138.818 13.0392L139.033 9.73271C139.078 9.47599 139.187 8.11419 137.118 5.83056Z" fill="white"/>
</g>
<g clip-path="url(#clip2)">
<path d="M34.1632 12.9441C32.541 10.4533 33.0612 8.0139 33.0666 7.99017C33.1075 7.8107 32.995 7.63191 32.8156 7.59103C32.6361 7.55015 32.4574 7.66262 32.4165 7.84205L31.5947 11.4493L29.3251 21.4111C28.5702 20.1917 26.6865 19.5559 24.7027 19.9627C23.3305 20.2444 22.1427 20.9822 21.5248 21.9368C21.1215 22.56 20.9845 23.2288 21.1279 23.8708C21.3671 24.9406 22.3604 25.7215 23.6595 26.0175C24.3854 26.1829 25.207 26.1967 26.0454 26.0249C27.4176 25.7431 28.6058 25.0054 29.2234 24.0508C29.4778 23.6573 29.5955 23.2276 29.698 22.778C29.7535 22.5342 29.809 22.2907 29.8645 22.0469C29.9439 21.6988 30.0232 21.3506 30.1024 21.0027C30.1972 20.5869 30.2918 20.1715 30.3865 19.7557C30.4882 19.3093 30.5899 18.863 30.6917 18.4163C30.7921 17.9758 30.8923 17.5356 30.9927 17.0951C31.0833 16.6975 31.1738 16.3003 31.2644 15.9027C31.3368 15.5847 31.4091 15.2671 31.4816 14.9492C31.5274 14.748 31.5733 14.5467 31.6192 14.3451C31.6311 14.2928 31.6431 14.2401 31.655 14.1878C31.8267 15.0148 32.1587 15.9563 32.7832 16.9152C34.0694 18.89 34.095 19.8763 34.0463 20.2088C34.021 20.3816 34.1331 20.5436 34.3019 20.582C34.3061 20.583 34.3103 20.5839 34.3149 20.5847C34.4911 20.6176 34.6612 20.5056 34.701 20.331L35.437 17.1002C35.5215 16.8538 35.8451 15.5265 34.1632 12.9441Z" fill="white"/>
</g>
<path d="M26.4098 75.1858H11.1923V70.6845C11.1923 69.114 12.4655 67.8407 14.0361 67.8407H23.5662C25.1367 67.8407 26.41 69.1139 26.41 70.6845V75.1858H26.4098Z" fill="#3B3E43"/>
<path d="M60.5362 75.1858H45.3187V70.6845C45.3187 69.114 46.5918 67.8407 48.1624 67.8407H57.6926C59.2631 67.8407 60.5363 69.1139 60.5363 70.6845L60.5362 75.1858Z" fill="#3B3E43"/>
<path d="M64.5458 98.085C64.5458 99.1426 63.6884 100 62.6307 100H7.36927C6.31162 100 5.45425 99.1426 5.45425 98.085V70.4904H64.5455V98.0851H64.5458V98.085Z" fill="#6FABAB"/>
<path d="M44.2719 40.1367H41.9062V38.8033C41.9062 35.2536 39.0183 32.3655 35.4683 32.3655C31.9185 32.3655 29.0305 35.2534 29.0305 38.8033V40.1367H26.6648V38.8033C26.6648 33.9493 30.6141 30 35.4683 30C40.3226 30 44.2719 33.9493 44.2719 38.8035V40.1367Z" fill="#87AFB9"/>
<path d="M35.4978 45.5888C38.5377 45.5888 41.002 43.1245 41.002 40.0847C41.002 37.0448 38.5377 34.5805 35.4978 34.5805C32.4579 34.5805 29.9936 37.0448 29.9936 40.0847C29.9936 43.1245 32.4579 45.5888 35.4978 45.5888Z" fill="#EDB59E"/>
<path d="M63.5153 46.7639C63.035 45.4984 61.62 44.8617 60.3544 45.3422L52.2572 48.4149L42.1952 47.6235L31.271 47.6334C31.2596 47.6321 31.2486 47.6295 31.2371 47.6282L22.9577 46.7904L27.3368 40.9616C28.1498 39.8793 27.9316 38.343 26.8495 37.5301C25.7674 36.717 24.2311 36.9352 23.418 38.0173L16.4295 47.3193C15.8983 48.0262 15.7892 48.9645 16.1439 49.7746C16.4987 50.5847 17.2624 51.1407 18.142 51.2297L28.4933 52.2772V70.4277H42.5599V52.5689L52.4208 53.3445C52.485 53.3495 52.5489 53.3521 52.6131 53.3521C52.9095 53.3521 53.2044 53.2982 53.4827 53.1927L62.0937 49.9248C63.359 49.4444 63.9956 48.0292 63.5153 46.7639Z" fill="#EDB59E"/>
<path d="M26.762 41.7264L26.9593 41.4639C26.7773 41.5537 26.5932 41.6391 26.41 41.7264H26.762Z" fill="#B03128"/>
<path d="M42.1952 47.6232L37.9858 47.6272C38.0358 48.9675 36.7914 50.1061 35.4916 50.1061C34.1001 50.1061 33.0688 48.9744 32.999 47.6318L31.2707 47.6333C31.2594 47.6319 31.2483 47.6293 31.2368 47.6281L23.8997 46.8856L23.0029 51.7216L28.4933 52.2772V75.186H42.5599V52.5689L48.4523 53.0323L49.1631 48.1714L42.1952 47.6232Z" fill="#1DB954"/>
<path d="M29.2932 36.9619C28.9714 36.7762 28.6161 36.6727 28.2423 36.6727C26.7906 36.6727 25.6136 38.2262 25.6136 40.1425C25.6136 42.0589 26.7904 43.6123 28.2423 43.6123C28.6161 43.6123 28.9711 43.5086 29.2932 43.3231V36.9619Z" fill="#1DB954"/>
<path d="M41.6393 36.9619C41.9612 36.7762 42.3165 36.6727 42.6903 36.6727C44.142 36.6727 45.319 38.2262 45.319 40.1425C45.319 42.0589 44.1421 43.6123 42.6903 43.6123C42.3165 43.6123 41.9613 43.5086 41.6393 43.3231V36.9619Z" fill="#1DB954"/>
<path d="M67.5159 75.1858H2.48403C1.8889 75.1858 1.40628 74.7033 1.40628 74.1081V71.4794C1.40628 70.8842 1.88876 70.4016 2.48403 70.4016H67.5159C68.1111 70.4016 68.5937 70.8841 68.5937 71.4794V74.1081C68.5938 74.7035 68.1112 75.1858 67.5159 75.1858Z" fill="#B7D2D9"/>
<g clip-path="url(#clip3)">
<path d="M141.307 54.3249C140.556 54.3249 139.831 54.0368 139.283 53.5144L132.527 47.0675C131.356 45.95 131.313 44.0949 132.43 42.9239C133.547 41.7526 135.403 41.7093 136.574 42.8267L142.379 48.3657L156.587 47.2047C158.199 47.073 159.615 48.2737 159.747 49.8871C159.879 51.5005 158.678 52.9152 157.064 53.047L141.545 54.3152C141.466 54.3216 141.386 54.3249 141.307 54.3249Z" fill="#DD9E84"/>
<path d="M135.654 42.3013L129.013 39.2285C126.956 38.2768 124.517 39.1727 123.566 41.2297L115.301 59.0912C114.93 59.8951 114.857 60.8052 115.096 61.6579L117.869 71.5258L107.288 81.9805C105.906 83.3458 105.893 85.5727 107.258 86.9542C108.62 88.332 110.847 88.353 112.232 86.984L124.276 75.0836C125.179 74.1907 125.532 72.8797 125.197 71.6543L123.163 64.2161L128.83 66.8217L137.655 47.7481C138.607 45.6916 137.711 43.2528 135.654 42.3013Z" fill="#227789"/>
<path d="M134.563 87.9529C132.647 87.6373 131.349 85.828 131.664 83.9113L133.996 69.2243L123.645 64.438C121.596 63.4956 120.86 61.826 121.521 59.9993C122.182 58.1726 124.199 57.2277 126.025 57.8885L139.231 63.5481C140.825 64.1244 141.781 65.7547 141.506 67.4265L138.605 85.0533C138.291 86.9606 136.49 88.2694 134.563 87.9529Z" fill="#207284"/>
<path d="M135.654 42.3013C134.348 41.697 130.737 40.0264 129.013 39.2285C126.956 38.2768 124.517 39.1729 123.566 41.2297L119.085 50.9154L115.302 59.0915C115.103 59.5214 114.992 59.982 114.967 60.4478L123.163 64.2165L128.83 66.8221L137.655 47.7486C138.605 45.6957 137.715 43.2547 135.654 42.3013Z" fill="#11953F"/>
<path d="M126.379 43.9795C125.68 43.9795 124.979 43.7309 124.419 43.2263L115.466 35.1622C115.168 34.8934 114.928 34.5664 114.761 34.2009L109.263 22.1481C108.591 20.6753 109.24 18.9369 110.713 18.2651C112.186 17.5933 113.924 18.2425 114.596 19.7151L119.842 31.214L128.342 38.8708C129.545 39.9542 129.641 41.8074 128.558 43.0101C127.979 43.6523 127.181 43.9795 126.379 43.9795Z" fill="#EDB59E"/>
<path d="M132.244 62.0856C131.721 62.0228 131.232 61.729 130.938 61.2438C130.43 60.4061 130.697 59.3154 131.535 58.8076L154.999 44.5805C155.836 44.0727 156.927 44.3399 157.435 45.1775C157.943 46.0152 157.675 47.106 156.838 47.6139L133.374 61.8411C133.021 62.0547 132.624 62.1313 132.244 62.0856Z" fill="#783C28"/>
<path d="M134.702 67.5493C135.052 65.7824 136.568 64.4824 138.368 64.4115C139.14 64.3811 139.884 64.1719 140.554 63.7659C143.167 62.1813 143.65 58.1985 141.632 54.8704C139.614 51.5422 135.859 50.1287 133.246 51.7134C132.576 52.1195 132.046 52.683 131.663 53.3528C130.766 54.9189 128.917 55.6606 127.186 55.1529C125.32 54.6062 123.413 54.7488 121.819 55.7156C118.277 57.8629 117.623 63.2599 120.358 67.7698C123.092 72.2798 128.18 74.1952 131.722 72.0478C133.316 71.0812 134.324 69.456 134.702 67.5493Z" fill="#F4F4F4"/>
<path d="M133.737 61.8623C135.016 61.8623 136.053 60.8256 136.053 59.5467C136.053 58.2678 135.016 57.2311 133.737 57.2311C132.458 57.2311 131.422 58.2678 131.422 59.5467C131.422 60.8256 132.458 61.8623 133.737 61.8623Z" fill="#501E0F"/>
<path d="M126.469 68.047L122.839 62.061C122.433 61.3909 122.647 60.5181 123.317 60.1119C123.987 59.7056 124.86 59.9194 125.266 60.5896L128.896 66.5755C129.302 67.2455 129.088 68.1183 128.418 68.5245C127.746 68.9318 126.874 68.7157 126.469 68.047Z" fill="#501E0F"/>
<path d="M155.614 50.6575C155.196 50.6074 154.804 50.3723 154.569 49.9841L151.848 45.4962C151.441 44.8262 151.655 43.9534 152.325 43.5472C152.995 43.1408 153.868 43.3547 154.275 44.0249L156.996 48.5127C157.402 49.1827 157.188 50.0553 156.518 50.4618C156.236 50.6328 155.918 50.694 155.614 50.6575Z" fill="#501E0F"/>
<path d="M152.702 52.4233C152.284 52.3731 151.892 52.1381 151.657 51.7498L148.936 47.2621C148.529 46.5921 148.743 45.7195 149.413 45.313C150.084 44.9067 150.956 45.1205 151.363 45.7907L154.084 50.2784C154.49 50.9485 154.276 51.821 153.606 52.2275C153.324 52.3984 153.006 52.4598 152.702 52.4233Z" fill="#501E0F"/>
<path d="M138.895 45.5965C142.249 45.5965 144.969 42.8769 144.969 39.5222C144.969 36.1674 142.249 33.4479 138.895 33.4479C135.54 33.4479 132.82 36.1674 132.82 39.5222C132.82 42.8769 135.54 45.5965 138.895 45.5965Z" fill="#EDB59E"/>
</g>
<g clip-path="url(#clip4)">
<path d="M105.305 70.3691H103.254C103.254 69.8036 102.794 69.3437 102.229 69.3437H86.0023V67.2929H102.229C103.925 67.2929 105.305 68.6729 105.305 70.3691Z" fill="#9B6159"/>
<path d="M79.67 67.2929C73.4505 67.2929 68.3906 62.2329 68.3906 56.0136C68.3906 55.4471 67.9315 54.9882 67.3653 54.9882C66.799 54.9882 66.3399 55.4471 66.3399 56.0136C66.3399 63.3639 72.3197 69.3437 79.67 69.3437H86.0022V67.2929H79.67Z" fill="#AD7560"/>
<path d="M101.203 61.4825H99.1524V72.42H101.203V61.4825Z" fill="white"/>
<path d="M80.8751 81.9902V108.868L77.4749 110.001C76.9376 110.181 76.6474 110.761 76.8263 111.299C77.0055 111.836 77.5864 112.126 78.1234 111.947L82.2247 110.58C82.6435 110.44 82.9258 110.048 82.9258 109.607V81.9902H80.8751Z" fill="#AD7560"/>
<path d="M91.1291 81.9902V108.868L94.5293 110.001C95.0666 110.181 95.3569 110.761 95.1779 111.299C94.9988 111.836 94.4179 112.126 93.8808 111.947L89.7795 110.58C89.3608 110.44 89.0784 110.048 89.0784 109.607V81.9902H91.1291Z" fill="#9B6159"/>
<path d="M100.178 58.0643C99.0452 58.0643 98.127 58.9826 98.127 60.1151V62.1659C98.127 63.2985 99.0452 64.2167 100.178 64.2167C101.31 64.2167 102.229 63.2985 102.229 62.1659V60.1151C102.229 58.9826 101.31 58.0643 100.178 58.0643Z" fill="#1DB954"/>
<path d="M108.996 110.154L101.203 104.309V76.5214C101.203 75.955 100.744 75.496 100.178 75.496C99.6115 75.496 99.1524 75.955 99.1524 76.5214V110.975C99.1524 111.541 99.6115 112 100.178 112C100.744 112 101.203 111.541 101.203 110.975V106.873L107.766 111.795C108.219 112.135 108.862 112.043 109.201 111.59C109.541 111.137 109.449 110.494 108.996 110.154Z" fill="#C6C6C6"/>
<path d="M101.203 77.5468H99.1524C98.5861 77.5468 98.127 77.0878 98.127 76.5214C98.127 75.955 98.5861 75.496 99.1524 75.496H101.203C101.77 75.496 102.229 75.955 102.229 76.5214C102.229 77.0878 101.77 77.5468 101.203 77.5468Z" fill="#353535"/>
<path d="M101.203 91.2187H99.1524C98.5861 91.2187 98.127 90.7597 98.127 90.1933C98.127 89.6269 98.5861 89.1679 99.1524 89.1679H101.203C101.77 89.1679 102.229 89.6269 102.229 90.1933C102.229 90.7597 101.77 91.2187 101.203 91.2187Z" fill="#353535"/>
<path d="M89.4201 65.5839H85.3185V73.1077L92.1545 71.2848V68.3183C92.1545 66.8082 90.9301 65.5839 89.4201 65.5839Z" fill="#9B6159"/>
<path d="M85.3185 65.5839H82.5841C81.0739 65.5839 79.8498 66.8081 79.8498 68.3183V71.2848L86.0021 74.0192L88.0529 73.1077V68.3183C88.0529 66.8082 86.8286 65.5839 85.3185 65.5839Z" fill="#AD7560"/>
<path d="M92.1544 77.8886L92.1543 71.2848C91.474 70.3179 90.3502 69.6855 89.0781 69.6855C88.7224 69.6855 88.3788 69.7366 88.0527 69.8289L85.3184 79.9394L90.1037 90.1933H94.2052V83.3116C94.2052 81.2319 93.4299 79.3344 92.1544 77.8886Z" fill="#127435"/>
<path d="M88.053 77.8887L88.0529 69.829C87.2129 70.067 86.4921 70.5883 86.0021 71.2848C85.3218 70.3179 84.1981 69.6855 82.9259 69.6855C81.6539 69.6855 80.5301 70.3178 79.8498 71.2848V77.8887C78.5743 79.3347 77.7991 81.2321 77.7991 83.3117V90.1934H90.1038V83.3117C90.1037 81.2321 89.3283 79.3345 88.053 77.8887Z" fill="#2CBE60"/>
<path d="M102.229 73.4452H100.178C99.6115 73.4452 99.1524 72.9863 99.1524 72.4198C99.1524 71.8534 99.6115 71.3944 100.178 71.3944H102.229C102.794 71.3944 103.254 70.9345 103.254 70.3691C103.254 69.8026 103.713 69.3437 104.279 69.3437C104.846 69.3437 105.305 69.8026 105.305 70.3691C105.305 72.0652 103.925 73.4452 102.229 73.4452Z" fill="#9B6159"/>
<path d="M94.9141 52.2539C94.9141 50.9648 94.3189 49.8151 93.3888 49.0632C93.5148 47.8739 93.1227 46.64 92.2112 45.7283C91.2996 44.8167 90.0658 44.4247 88.8763 44.5508C88.1244 43.6207 86.9747 43.0254 85.6856 43.0254C84.3965 43.0254 83.2468 43.6207 82.4948 44.5508C81.3055 44.4247 80.0716 44.8168 79.16 45.7283C78.2484 46.6398 77.8564 47.8737 77.9824 49.0632C77.0523 49.815 76.4571 50.9647 76.4571 52.2539C76.4571 53.5432 77.0523 54.6927 77.9824 55.4447C77.8564 56.634 78.2485 57.8679 79.16 58.7795C80.7618 60.3813 83.3588 60.3813 84.9606 58.7795H86.4106C88.0124 60.3813 90.6094 60.3813 92.2112 58.7795C93.1228 57.8679 93.5148 56.6341 93.3888 55.4447C94.3189 54.6927 94.9141 53.5431 94.9141 52.2539Z" fill="#40211D"/>
<path d="M85.6856 49.1777V61.4825C89.0835 61.4825 91.838 58.728 91.838 55.3301C91.838 51.9322 89.0834 49.1777 85.6856 49.1777Z" fill="#9B6159"/>
<path d="M87.7364 55.3301C87.7364 51.9322 86.8182 49.1777 85.6856 49.1777C82.2877 49.1777 79.5332 51.9322 79.5332 55.3301C79.5332 58.728 82.2877 61.4825 85.6856 61.4825C86.8182 61.4825 87.7364 58.7278 87.7364 55.3301Z" fill="#AD7560"/>
</g>
<defs>
<clipPath id="clip0">
<rect width="20" height="20" fill="white" transform="translate(68 13.0067) rotate(-8.64612)"/>
</clipPath>
<clipPath id="clip1">
<rect width="20" height="20" fill="white" transform="translate(123.3) rotate(3.72735)"/>
</clipPath>
<clipPath id="clip2">
<rect width="20" height="20" fill="white" transform="translate(21.4427 5) rotate(12.8344)"/>
</clipPath>
<clipPath id="clip3">
<rect width="70" height="70" fill="white" transform="translate(98 18)"/>
</clipPath>
<clipPath id="clip4">
<rect width="70" height="70" fill="white" transform="translate(58 42)"/>
</clipPath>
</defs>
</svg>
