<svg width="100" height="100" viewBox="0 0 100 100" fill="none" xmlns="http://www.w3.org/2000/svg">
<path d="M40.0391 0C17.9262 0 0 17.9262 0 40.0391C0 62.152 17.9262 80.0781 40.0391 80.0781C62.152 80.0781 80.0781 62.152 80.0781 40.0391C80.0781 17.9262 62.152 0 40.0391 0ZM40.0391 52.7344C33.0389 52.7344 27.3438 47.0395 27.3438 40.0391C27.3438 33.0387 33.0389 27.3438 40.0391 27.3438C47.0393 27.3438 52.7344 33.0387 52.7344 40.0391C52.7344 47.0395 47.0393 52.7344 40.0391 52.7344Z" fill="#1ED760"/>
<path d="M52.7344 40.0391C52.7344 47.0395 47.0393 52.7344 40.0391 52.7344V80.0781C62.152 80.0781 80.0781 62.152 80.0781 40.0391C80.0781 17.9262 62.152 0 40.0391 0V27.3438C47.0393 27.3438 52.7344 33.0387 52.7344 40.0391Z" fill="#1DB954"/>
<path d="M40.0391 19.5312C28.7311 19.5312 19.5312 28.7311 19.5312 40.0391C19.5312 51.3471 28.7311 60.5469 40.0391 60.5469C51.3471 60.5469 60.5469 51.3471 60.5469 40.0391C60.5469 28.7311 51.3471 19.5312 40.0391 19.5312ZM40.0391 48.8281C35.1928 48.8281 31.25 44.8854 31.25 40.0391C31.25 35.1928 35.1928 31.25 40.0391 31.25C44.8854 31.25 48.8281 35.1928 48.8281 40.0391C48.8281 44.8854 44.8854 48.8281 40.0391 48.8281Z" fill="#F9F9F9"/>
<path d="M40.0391 31.25C44.8854 31.25 48.8281 35.1928 48.8281 40.0391C48.8281 44.8854 44.8854 48.8281 40.0391 48.8281V60.5469C51.3471 60.5469 60.5469 51.3471 60.5469 40.0391C60.5469 28.7311 51.3471 19.5312 40.0391 19.5312V31.25Z" fill="#D5D3EA"/>
<path d="M98.8732 45.933C98.1621 45.3777 97.2348 45.1811 96.3598 45.4L65.1098 53.2125C63.8057 53.5385 62.8906 54.7103 62.8906 56.0547V84.6223C62.2662 84.4609 61.6117 84.375 60.9375 84.375C56.6297 84.375 53.125 87.8797 53.125 92.1875C53.125 96.4953 56.6297 100 60.9375 100C65.2453 100 68.75 96.4953 68.75 92.1875V68.1076L94.1406 61.76V80.716C93.5162 80.5547 92.8617 80.4687 92.1875 80.4687C87.8797 80.4687 84.375 83.9734 84.375 88.2812C84.375 92.5891 87.8797 96.0938 92.1875 96.0938C96.4953 96.0938 100 92.5891 100 88.2812V48.2422C100 47.34 99.5844 46.4883 98.8732 45.933V45.933Z" fill="white"/>
<path d="M98.8732 45.933C98.1621 45.3777 97.2348 45.1811 96.3598 45.4L80.7348 49.3062V65.1113L94.1406 61.76V80.716C93.5162 80.5547 92.8617 80.4688 92.1875 80.4688C87.8797 80.4688 84.375 83.9734 84.375 88.2813C84.375 92.5891 87.8797 96.0938 92.1875 96.0938C96.4953 96.0938 100 92.5891 100 88.2813V48.2422C100 47.34 99.5844 46.4883 98.8732 45.933Z" fill="white"/>
</svg>
