<svg width="40" height="40" viewBox="0 0 40 40" fill="none" xmlns="http://www.w3.org/2000/svg">
<path d="M20 0C8.95429 0 0 8.95429 0 20C0 31.0457 8.95429 40 20 40C31.0457 40 40 31.0457 40 20C40 8.95429 31.0457 0 20 0ZM28.7043 29.0255C28.45 29.4606 27.9923 29.7032 27.5222 29.7033C27.2878 29.7033 27.0504 29.643 26.8334 29.5162C23.2394 27.4158 19.0874 27.0783 16.2365 27.165C13.0785 27.261 10.7626 27.8844 10.7396 27.8908C10.0116 28.0897 9.2593 27.6613 9.05961 26.9334C8.86001 26.2056 9.2869 25.4538 10.0145 25.2533C10.1189 25.2246 12.611 24.5477 16.0765 24.4334C18.1178 24.3661 20.083 24.5083 21.9166 24.8562C24.2391 25.2967 26.3576 26.0701 28.2135 27.1547C28.8657 27.5358 29.0853 28.3734 28.7043 29.0255ZM31.2469 23.7446C30.9457 24.2601 30.4036 24.5474 29.8467 24.5475C29.5691 24.5475 29.2878 24.4762 29.0308 24.3259C24.7737 21.8379 19.8554 21.4383 16.4785 21.5409C12.7377 21.6547 9.99448 22.3932 9.96726 22.4006C9.10516 22.6359 8.21387 22.1288 7.97733 21.2666C7.74087 20.4044 8.24661 19.514 9.10843 19.2765C9.23209 19.2425 12.184 18.4406 16.289 18.3053C18.7072 18.2256 21.0349 18.394 23.2068 18.806C25.9578 19.328 28.4673 20.2439 30.6656 21.5286C31.4382 21.98 31.6984 22.9722 31.2469 23.7446ZM32.8099 18.9431C32.4694 18.9431 32.1244 18.8555 31.8091 18.6713C21.6881 12.7564 8.5592 16.2728 8.42779 16.3091C7.36964 16.6006 6.27576 15.9792 5.9843 14.9211C5.69276 13.863 6.3142 12.7691 7.37226 12.4776C7.52387 12.4358 11.1448 11.4523 16.18 11.2863C19.1462 11.1886 22.0013 11.3952 24.6654 11.9005C28.0398 12.5407 31.118 13.6642 33.8144 15.2401C34.7619 15.7938 35.0811 17.0107 34.5274 17.9582C34.158 18.5905 33.493 18.9431 32.8099 18.9431Z" fill="white"/>
</svg>
