<svg width="91" height="89" viewBox="0 0 91 89" fill="none" xmlns="http://www.w3.org/2000/svg">
<path d="M60.375 79H57.0938C56.8037 79 56.5255 79.1152 56.3204 79.3204C56.1152 79.5255 56 79.8037 56 80.0938C56 80.3838 56.1152 80.662 56.3204 80.8671C56.5255 81.0723 56.8037 81.1875 57.0938 81.1875H60.375C60.6651 81.1875 60.9433 81.0723 61.1484 80.8671C61.3535 80.662 61.4688 80.3838 61.4688 80.0938C61.4688 79.8037 61.3535 79.5255 61.1484 79.3204C60.9433 79.1152 60.6651 79 60.375 79Z" fill="#CCCCCC"/>
<path d="M54.0938 75C53.8037 75 53.5255 75.1152 53.3204 75.3204C53.1152 75.5255 53 75.8037 53 76.0938C53 76.3838 53.1152 76.662 53.3204 76.8671C53.5255 77.0723 53.8037 77.1875 54.0938 77.1875H61.75C62.0401 77.1875 62.3183 77.0723 62.5234 76.8671C62.7285 76.662 62.8438 76.3838 62.8438 76.0938C62.8438 75.8037 62.7285 75.5255 62.5234 75.3204C62.3183 75.1152 62.0401 75 61.75 75H54.0938Z" fill="#CCCCCC"/>
<path d="M16.8438 32.5625V27.0938C16.8438 26.8037 16.7285 26.5255 16.5234 26.3204C16.3183 26.1152 16.0401 26 15.75 26H8.09375C7.80367 26 7.52547 26.1152 7.32035 26.3204C7.11523 26.5255 7 26.8037 7 27.0938V32.5625C7 32.8526 7.11523 33.1308 7.32035 33.3359C7.52547 33.541 7.80367 33.6562 8.09375 33.6562H15.75C16.0401 33.6562 16.3183 33.541 16.5234 33.3359C16.7285 33.1308 16.8438 32.8526 16.8438 32.5625ZM14.6562 31.4688H9.1875V28.1875H14.6562V31.4688Z" fill="#CCCCCC"/>
<path d="M43.4881 42.2595C43.3668 42.1568 43.2246 42.0817 43.0714 42.0395C42.9181 41.9972 42.7576 41.9888 42.6008 42.0147L29.4758 44.2022C29.2205 44.2449 28.9887 44.3767 28.8215 44.5742C28.6543 44.7718 28.5625 45.0222 28.5625 45.2809V57.9014C27.8985 57.5146 27.1435 57.3112 26.375 57.3122C25.5097 57.3122 24.6638 57.5688 23.9444 58.0495C23.2249 58.5302 22.6642 59.2135 22.333 60.0129C22.0019 60.8124 21.9153 61.692 22.0841 62.5407C22.2529 63.3894 22.6696 64.1689 23.2814 64.7808C23.8933 65.3926 24.6728 65.8093 25.5215 65.9781C26.3701 66.1469 27.2498 66.0603 28.0492 65.7292C28.8487 65.398 29.532 64.8373 30.0127 64.1178C30.4934 63.3983 30.75 62.5525 30.75 61.6872V50.5829L41.6875 48.7591V55.7139C41.0235 55.3271 40.2685 55.1237 39.5 55.1247C38.6347 55.1247 37.7888 55.3813 37.0694 55.862C36.3499 56.3427 35.7892 57.026 35.458 57.8254C35.1269 58.6249 35.0403 59.5045 35.2091 60.3532C35.3779 61.2019 35.7946 61.9814 36.4064 62.5933C37.0183 63.2051 37.7978 63.6218 38.6465 63.7906C39.4951 63.9594 40.3748 63.8728 41.1742 63.5417C41.9737 63.2105 42.6569 62.6498 43.1377 61.9303C43.6184 61.2108 43.875 60.365 43.875 59.4997V43.0934C43.8748 42.9347 43.8401 42.7779 43.7733 42.6339C43.7065 42.4899 43.6092 42.3621 43.4881 42.2595ZM26.375 63.8747C25.9424 63.8747 25.5194 63.7464 25.1597 63.506C24.8 63.2657 24.5196 62.924 24.354 62.5243C24.1884 62.1246 24.1451 61.6848 24.2295 61.2604C24.3139 60.8361 24.5223 60.4463 24.8282 60.1404C25.1341 59.8345 25.5239 59.6261 25.9482 59.5417C26.3726 59.4573 26.8124 59.5006 27.2121 59.6662C27.6118 59.8318 27.9535 60.1121 28.1938 60.4719C28.4342 60.8316 28.5625 61.2545 28.5625 61.6872C28.5617 62.2671 28.331 62.8231 27.921 63.2331C27.5109 63.6432 26.9549 63.8739 26.375 63.8747ZM39.5 61.6872C39.0674 61.6872 38.6444 61.5589 38.2847 61.3185C37.925 61.0782 37.6446 60.7365 37.479 60.3368C37.3134 59.9371 37.2701 59.4973 37.3545 59.0729C37.4389 58.6486 37.6473 58.2588 37.9532 57.9529C38.2591 57.647 38.6489 57.4386 39.0732 57.3542C39.4976 57.2698 39.9374 57.3131 40.3371 57.4787C40.7368 57.6443 41.0785 57.9246 41.3188 58.2844C41.5592 58.6441 41.6875 59.067 41.6875 59.4997C41.6867 60.0796 41.456 60.6356 41.046 61.0456C40.6359 61.4557 40.0799 61.6864 39.5 61.6872ZM41.6875 46.5415L30.75 48.3653V46.2079L41.6875 44.3841V46.5415Z" fill="#CCCCCC"/>
<path d="M34.6875 34C23.832 34 15 42.832 15 53.6875C15 64.543 23.832 73.375 34.6875 73.375C45.543 73.375 54.375 64.543 54.375 53.6875C54.375 42.832 45.543 34 34.6875 34ZM34.6875 71.1875C31.2263 71.1875 27.8429 70.1611 24.965 68.2382C22.0872 66.3153 19.8441 63.5822 18.5196 60.3845C17.1951 57.1868 16.8485 53.6681 17.5238 50.2734C18.199 46.8788 19.8657 43.7605 22.3131 41.3131C24.7605 38.8657 27.8788 37.199 31.2734 36.5238C34.6681 35.8485 38.1868 36.1951 41.3845 37.5196C44.5822 38.8441 47.3153 41.0872 49.2382 43.965C51.1611 46.8429 52.1875 50.2263 52.1875 53.6875C52.1823 58.3272 50.3369 62.7754 47.0561 66.0561C43.7754 69.3369 39.3272 71.1823 34.6875 71.1875Z" fill="#CCCCCC"/>
<path fill-rule="evenodd" clip-rule="evenodd" d="M4 19C1.79083 19 0 20.7908 0 23V85C0 87.2092 1.79083 89 4 89H66C68.2092 89 70 87.2092 70 85V23C70 20.7908 68.2092 19 66 19H4ZM7 22C4.79083 22 3 23.7908 3 26V82C3 84.2092 4.79083 86 7 86H63C65.2092 86 67 84.2092 67 82V26C67 23.7908 65.2092 22 63 22H7Z" fill="#C4C4C4"/>
<path d="M62.0058 14C61.3622 14.0465 60.8783 14.6057 60.9246 15.2491C60.9663 15.8281 61.4268 16.2886 62.0058 16.3303C69.477 16.3303 75.5337 22.387 75.5337 29.8583C75.4873 30.5019 75.9714 31.0611 76.6149 31.1074C77.2585 31.1539 77.8178 30.6698 77.8641 30.0263C77.8682 29.9703 77.8682 29.9141 77.8641 29.8582C77.8641 21.1001 70.764 14 62.0058 14Z" fill="#CCCCCC"/>
<path d="M77.5948 14.7822C73.2641 10.4413 67.384 8.00217 61.2522 8.00308C60.6087 7.95663 60.0494 8.4407 60.0031 9.08426C59.9566 9.72783 60.4407 10.2871 61.0843 10.3334C61.1403 10.3375 61.1964 10.3375 61.2524 10.3334C72.7391 10.3334 82.0546 19.6381 82.0679 31.1248C82.0215 31.7683 82.5055 32.3276 83.1491 32.3739C83.7927 32.4204 84.3519 31.9363 84.3982 31.2927C84.4023 31.2367 84.4023 31.1806 84.3982 31.1246C84.3934 24.9893 81.9452 19.1086 77.5948 14.7822Z" fill="#CCCCCC"/>
<path fill-rule="evenodd" clip-rule="evenodd" d="M32 22C35.501 9.31525 47.1234 0 60.9215 0C77.4901 0 90.9215 13.4315 90.9215 30C90.9215 44.5137 80.615 56.6203 66.9215 59.3999V55.7152C78.6112 52.9985 87.3215 42.5164 87.3215 30C87.3215 15.4197 75.5019 3.6 60.9215 3.6C49.13 3.6 39.1441 11.3306 35.7554 22H32Z" fill="#C4C4C4"/>
</svg>
