<svg width="20" height="20" viewBox="0 0 20 20" fill="none" xmlns="http://www.w3.org/2000/svg">
<g clip-path="url(#clip0)">
<path d="M15 7.49999V4.99999C14.1667 4.99999 12.2433 4.84333 11.245 6.84666L7.73 13.8975C6.88417 15.5942 5.15167 16.6667 3.255 16.6667H0V15H3.255C4.51917 15 5.67417 14.285 6.23833 13.1533L9.75333 6.10249C10.8833 3.83499 12.815 3.33333 15 3.33333V0.833328L20 4.16666L15 7.49999V7.49999ZM7.11417 8.60333L8.045 6.73499C7.01583 4.66916 5.62917 3.33333 3.255 3.33333H0V4.99999H3.255C5.64833 4.99999 6.29167 6.95249 7.11417 8.60333V8.60333ZM20 15.8333L15 12.5V15C11.85 15 11.6508 13.9683 10.37 11.3983L9.43833 13.2658C10.2892 14.9733 11.1883 16.6667 15 16.6667V19.1667L20 15.8333Z" fill="#CCCCCC"/>
</g>
<defs>
<clipPath id="clip0">
<rect width="20" height="20" fill="white"/>
</clipPath>
</defs>
</svg>
